<?xml version="1.0" encoding="UTF-8" standalone="no"?>
<svg
   xmlns:dc="http://purl.org/dc/elements/1.1/"
   xmlns:cc="http://creativecommons.org/ns#"
   xmlns:rdf="http://www.w3.org/1999/02/22-rdf-syntax-ns#"
   xmlns:svg="http://www.w3.org/2000/svg"
   xmlns="http://www.w3.org/2000/svg"
   xmlns:sodipodi="http://sodipodi.sourceforge.net/DTD/sodipodi-0.dtd"
   xmlns:inkscape="http://www.inkscape.org/namespaces/inkscape"
   viewBox="0 0 247.63672 141.37698"
   version="1.1"
   id="svg4"
   sodipodi:docname="blob.svg"
   width="247.63672"
   height="141.37698"
   inkscape:version="0.92.3 (2405546, 2018-03-11)">
  <metadata
     id="metadata10">
    <rdf:RDF>
      <cc:Work
         rdf:about="">
        <dc:format>image/svg+xml</dc:format>
        <dc:type
           rdf:resource="http://purl.org/dc/dcmitype/StillImage" />
        <dc:title></dc:title>
      </cc:Work>
    </rdf:RDF>
  </metadata>
  <defs
     id="defs8" />
  <sodipodi:namedview
     pagecolor="#ffffff"
     bordercolor="#666666"
     borderopacity="1"
     objecttolerance="10"
     gridtolerance="10"
     guidetolerance="10"
     inkscape:pageopacity="0"
     inkscape:pageshadow="2"
     inkscape:window-width="1680"
     inkscape:window-height="985"
     id="namedview6"
     showgrid="false"
     fit-margin-top="0"
     fit-margin-left="0"
     fit-margin-right="0"
     fit-margin-bottom="0"
     inkscape:zoom="2.36"
     inkscape:cx="110.65113"
     inkscape:cy="45.683557"
     inkscape:window-x="0"
     inkscape:window-y="0"
     inkscape:window-maximized="1"
     inkscape:current-layer="svg4" />
  <path
     style="font-style:normal;font-weight:normal;font-size:40px;line-height:1.25;font-family:sans-serif;letter-spacing:0px;word-spacing:0px;fill:#0fb397;fill-opacity:1;stroke:none"
     d="M 45.234375 46.785156 L 45.234375 51.335938 L 48.828125 51.335938 L 48.828125 46.785156 L 45.234375 46.785156 z M 239.6875 47.488281 C 238.34635 47.488281 237.04427 47.670573 235.78125 48.035156 C 234.53125 48.39974 233.29427 48.953125 232.07031 49.695312 L 232.07031 53.367188 C 233.33333 52.494792 234.54427 51.830729 235.70312 51.375 C 236.875 50.919271 237.97526 50.691406 239.00391 50.691406 C 240.41016 50.691406 241.53646 51.049479 242.38281 51.765625 C 243.24219 52.481771 243.67188 53.419271 243.67188 54.578125 C 243.67188 55.216146 243.5026 55.841146 243.16406 56.453125 C 242.83854 57.065104 242.30469 57.716146 241.5625 58.40625 L 239.80469 60.144531 C 238.63281 61.264323 237.86458 62.247396 237.5 63.09375 C 237.13542 63.940104 236.95312 65.020833 236.95312 66.335938 L 236.95312 69.34375 L 240.68359 69.34375 L 240.68359 66.941406 C 240.68359 66.264323 240.70312 65.730469 240.74219 65.339844 C 240.78125 64.949219 240.83984 64.617188 240.91797 64.34375 C 241.02214 64.018229 241.19792 63.686198 241.44531 63.347656 C 241.70573 62.996094 242.14193 62.514323 242.75391 61.902344 L 244.47266 60.222656 C 245.64453 59.102865 246.46484 58.10026 246.93359 57.214844 C 247.40234 56.316406 247.63672 55.372396 247.63672 54.382812 C 247.63672 52.3125 246.90755 50.645833 245.44922 49.382812 C 244.00391 48.119792 242.08333 47.488281 239.6875 47.488281 z M 0 48.015625 L 0 77.175781 L 3.9453125 77.175781 L 3.9453125 48.015625 L 0 48.015625 z M 56.269531 49.089844 L 56.269531 55.300781 L 53.632812 55.300781 L 53.632812 58.09375 L 56.269531 58.09375 L 56.269531 66.996094 C 57.495602 65.774761 58.707718 64.518874 59.882812 63.199219 L 59.882812 58.09375 L 64.054688 58.09375 C 64.748668 57.177978 65.432273 56.24899 66.105469 55.300781 L 59.882812 55.300781 L 59.882812 49.089844 L 56.269531 49.089844 z M 18.59375 54.773438 C 15.911458 54.773437 13.841146 55.333333 12.382812 56.453125 C 10.924479 57.572917 10.195312 59.161458 10.195312 61.21875 C 10.195313 62.911458 10.690104 64.246094 11.679688 65.222656 C 12.669271 66.186198 14.277344 66.902344 16.503906 67.371094 L 17.753906 67.664062 C 19.980469 68.145833 21.419271 68.647135 22.070312 69.167969 C 22.734375 69.688802 23.066406 70.4375 23.066406 71.414062 C 23.066406 72.46875 22.610677 73.289062 21.699219 73.875 C 20.78776 74.447917 19.485677 74.734375 17.792969 74.734375 C 16.529948 74.734375 15.253906 74.565104 13.964844 74.226562 C 12.675781 73.875 11.367188 73.354167 10.039062 72.664062 L 10.039062 76.375 C 11.445313 76.830729 12.779948 77.169271 14.042969 77.390625 C 15.31901 77.625 16.542969 77.742188 17.714844 77.742188 C 20.527344 77.742188 22.734375 77.14974 24.335938 75.964844 C 25.950521 74.779948 26.757812 73.171875 26.757812 71.140625 C 26.757812 69.356771 26.217448 67.970052 25.136719 66.980469 C 24.06901 65.977865 22.259115 65.203125 19.707031 64.65625 L 18.476562 64.382812 C 16.549479 63.953125 15.266927 63.503906 14.628906 63.035156 C 13.990885 62.553385 13.671875 61.895833 13.671875 61.0625 C 13.671875 59.96875 14.114583 59.148438 15 58.601562 C 15.898438 58.054688 17.239583 57.78125 19.023438 57.78125 C 20.195312 57.78125 21.328125 57.911458 22.421875 58.171875 C 23.515625 58.432292 24.570312 58.822917 25.585938 59.34375 L 25.585938 55.945312 C 24.596354 55.554688 23.515625 55.261719 22.34375 55.066406 C 21.171875 54.871094 19.921875 54.773438 18.59375 54.773438 z M 45.234375 55.300781 L 45.234375 76.759766 C 46.422453 75.795304 47.621572 74.800192 48.828125 73.779297 L 48.828125 55.300781 L 45.234375 55.300781 z M 224.19922 55.300781 L 217.36328 72.410156 L 210.53516 55.318359 C 211.41556 59.336258 211.79078 63.313474 211.58594 67.140625 L 215.56641 76.824219 L 214.92188 78.464844 C 214.25781 80.209635 213.65234 81.316406 213.10547 81.785156 C 212.55859 82.253906 211.79036 82.488281 210.80078 82.488281 L 208.69141 82.488281 L 208.69141 85.496094 L 211.5625 85.496094 C 213.17708 85.496094 214.46615 85.098958 215.42969 84.304688 C 216.39323 83.510417 217.38281 81.811198 218.39844 79.207031 L 228.00781 55.300781 L 224.19922 55.300781 z M 236.83594 72.214844 L 236.83594 77.175781 L 240.80078 77.175781 L 240.80078 72.214844 L 236.83594 72.214844 z "
     id="text3717-7" />
  <path
     style="fill:#0fb397;stroke-width:1.96669793"
     d="M 139.07227 0.00390625 C 126.26754 -0.13041578 113.95132 2.8624092 104.27148 8.578125 C 86.14587 19.280866 77.412176 39.37507 66.105469 55.300781 L 67.285156 55.300781 L 67.285156 58.09375 L 64.054688 58.09375 C 63.125132 59.320385 62.178623 60.523267 61.201172 61.679688 C 60.766596 62.193833 60.327028 62.700355 59.882812 63.199219 L 59.882812 69.96875 C 59.882812 71.752604 60.123698 72.898438 60.605469 73.40625 C 61.10026 73.914062 62.096354 74.167969 63.59375 74.167969 L 67.285156 74.167969 L 67.285156 77.175781 L 63.59375 77.175781 C 60.820312 77.175781 58.90625 76.661458 57.851562 75.632812 C 56.796875 74.591146 56.269531 72.703125 56.269531 69.96875 L 56.269531 66.996094 C 53.832277 69.423929 51.325583 71.666133 48.828125 73.779297 L 48.828125 77.175781 L 45.234375 77.175781 L 45.234375 76.759766 C 35.559752 84.613459 26.842353 90.789085 24.816406 98.259766 C 21.66969 109.86328 34.846395 124.61351 48.613281 133.07031 C 62.576836 141.33044 77.328291 143.29727 88.341797 139.56055 C 99.355306 135.82382 106.43537 126.38453 130.23242 117.92773 C 153.83279 109.47093 194.15005 102.39039 206.93359 82.330078 C 209.82074 77.799477 211.29242 72.624497 211.58594 67.140625 L 206.71875 55.300781 L 210.52734 55.300781 L 210.53516 55.318359 C 207.0914 39.602106 195.9176 23.28685 181.36719 13.101562 C 168.72501 4.3251743 153.58428 0.15613788 139.07227 0.00390625 z M 84.628906 46.785156 L 88.242188 46.785156 L 88.242188 58.621094 C 88.997396 57.31901 89.947917 56.355469 91.09375 55.730469 C 92.252604 55.092448 93.632812 54.773438 95.234375 54.773438 C 97.890625 54.773438 100.04557 55.828125 101.69922 57.9375 C 103.36589 60.046875 104.19922 62.820312 104.19922 66.257812 C 104.19922 69.695312 103.36589 72.46875 101.69922 74.578125 C 100.04557 76.6875 97.890625 77.742188 95.234375 77.742188 C 93.632812 77.742188 92.252604 77.429688 91.09375 76.804688 C 89.947917 76.166667 88.997396 75.196615 88.242188 73.894531 L 88.242188 77.175781 L 84.628906 77.175781 L 84.628906 46.785156 z M 110.15625 46.785156 L 113.75 46.785156 L 113.75 51.335938 L 110.15625 51.335938 L 110.15625 46.785156 z M 173.76953 46.785156 L 177.36328 46.785156 L 177.36328 77.175781 L 173.76953 77.175781 L 173.76953 73.894531 C 173.01432 75.196615 172.05729 76.166667 170.89844 76.804688 C 169.7526 77.429688 168.3724 77.742188 166.75781 77.742188 C 164.11458 77.742188 161.95964 76.6875 160.29297 74.578125 C 158.63932 72.46875 157.8125 69.695312 157.8125 66.257812 C 157.8125 62.820312 158.63932 60.046875 160.29297 57.9375 C 161.95964 55.828125 164.11458 54.773438 166.75781 54.773438 C 168.3724 54.773438 169.7526 55.092448 170.89844 55.730469 C 172.05729 56.355469 173.01432 57.31901 173.76953 58.621094 L 173.76953 46.785156 z M 131.79688 54.773438 C 134.3099 54.773438 136.21094 55.554688 137.5 57.117188 C 138.78906 58.666667 139.43359 60.951823 139.43359 63.972656 L 139.43359 77.175781 L 135.83984 77.175781 L 135.83984 64.089844 C 135.83984 62.019531 135.4362 60.470052 134.62891 59.441406 C 133.82161 58.41276 132.61068 57.898438 130.99609 57.898438 C 129.05599 57.898438 127.52604 58.516927 126.40625 59.753906 C 125.28646 60.990885 124.72656 62.677083 124.72656 64.8125 L 124.72656 77.175781 L 121.11328 77.175781 L 121.11328 55.300781 L 124.72656 55.300781 L 124.72656 58.699219 C 125.58594 57.384115 126.59505 56.401042 127.75391 55.75 C 128.92578 55.098958 130.27344 54.773437 131.79688 54.773438 z M 192.44141 54.773438 C 195.60547 54.773438 197.96875 55.59375 199.53125 57.234375 C 201.09375 58.875 201.875 61.361979 201.875 64.695312 L 201.875 77.175781 L 198.28125 77.175781 L 198.28125 73.855469 C 197.46094 75.183594 196.4388 76.166667 195.21484 76.804688 C 193.99089 77.429688 192.49349 77.742188 190.72266 77.742188 C 188.48307 77.742188 186.69922 77.117188 185.37109 75.867188 C 184.05599 74.604167 183.39844 72.917969 183.39844 70.808594 C 183.39844 68.347656 184.21875 66.492188 185.85938 65.242188 C 187.51302 63.992188 189.97396 63.367188 193.24219 63.367188 L 198.28125 63.367188 L 198.28125 63.015625 C 198.28125 61.361979 197.73438 60.085938 196.64062 59.1875 C 195.5599 58.276042 194.03646 57.820313 192.07031 57.820312 C 190.82031 57.820312 189.60286 57.970052 188.41797 58.269531 C 187.23307 58.56901 186.09375 59.018229 185 59.617188 L 185 56.296875 C 186.3151 55.789062 187.59115 55.411458 188.82812 55.164062 C 190.0651 54.903646 191.26953 54.773437 192.44141 54.773438 z M 110.15625 55.300781 L 113.75 55.300781 L 113.75 77.175781 L 110.15625 77.175781 L 110.15625 55.300781 z M 94.355469 57.78125 C 92.454427 57.78125 90.957031 58.536458 89.863281 60.046875 C 88.782552 61.544271 88.242188 63.614583 88.242188 66.257812 C 88.242188 68.901042 88.782552 70.977865 89.863281 72.488281 C 90.957031 73.985677 92.454427 74.734375 94.355469 74.734375 C 96.25651 74.734375 97.747396 73.985677 98.828125 72.488281 C 99.921875 70.977865 100.46875 68.901042 100.46875 66.257812 C 100.46875 63.614583 99.921875 61.544271 98.828125 60.046875 C 97.747396 58.536458 96.25651 57.78125 94.355469 57.78125 z M 167.63672 57.78125 C 165.73568 57.78125 164.23828 58.536458 163.14453 60.046875 C 162.0638 61.544271 161.52344 63.614583 161.52344 66.257812 C 161.52344 68.901042 162.0638 70.977865 163.14453 72.488281 C 164.23828 73.985677 165.73568 74.734375 167.63672 74.734375 C 169.53776 74.734375 171.03516 73.985677 172.12891 72.488281 C 173.22266 70.977865 173.76953 68.901042 173.76953 66.257812 C 173.76953 63.614583 173.22266 61.544271 172.12891 60.046875 C 171.03516 58.536458 169.53776 57.78125 167.63672 57.78125 z M 194.70703 66.179688 C 191.80339 66.179688 189.79167 66.511719 188.67188 67.175781 C 187.55208 67.839844 186.99219 68.972656 186.99219 70.574219 C 186.99219 71.85026 187.40885 72.865885 188.24219 73.621094 C 189.08854 74.363281 190.23438 74.734375 191.67969 74.734375 C 193.67188 74.734375 195.26693 74.03125 196.46484 72.625 C 197.67578 71.205729 198.28125 69.324219 198.28125 66.980469 L 198.28125 66.179688 L 194.70703 66.179688 z "
     id="path2" />
  <text
     xml:space="preserve"
     style="font-style:normal;font-weight:normal;font-size:40px;line-height:1.25;font-family:sans-serif;letter-spacing:0px;word-spacing:0px;fill:#000000;fill-opacity:1;stroke:none"
     x="-394.69327"
     y="-84.028542"
     id="text3717-3"><tspan
       sodipodi:role="line"
       id="tspan3715-6"
       x="-394.69327"
       y="-84.028542">Is it bin day?</tspan></text>
</svg>
