<?xml version="1.0" encoding="UTF-8" standalone="no"?>
<!-- Created with Inkscape (http://www.inkscape.org/) -->

<svg
   xmlns:dc="http://purl.org/dc/elements/1.1/"
   xmlns:cc="http://creativecommons.org/ns#"
   xmlns:rdf="http://www.w3.org/1999/02/22-rdf-syntax-ns#"
   xmlns:svg="http://www.w3.org/2000/svg"
   xmlns="http://www.w3.org/2000/svg"
   xmlns:sodipodi="http://sodipodi.sourceforge.net/DTD/sodipodi-0.dtd"
   xmlns:inkscape="http://www.inkscape.org/namespaces/inkscape"
   width="595.88593"
   height="505.18582"
   viewBox="0 0 157.66148 133.66376"
   version="1.1"
   id="svg1348"
   inkscape:version="0.92.3 (2405546, 2018-03-11)"
   sodipodi:docname="iibd-logo.svg">
  <defs
     id="defs1342" />
  <sodipodi:namedview
     id="base"
     pagecolor="#ffffff"
     bordercolor="#666666"
     borderopacity="1.0"
     inkscape:pageopacity="0.0"
     inkscape:pageshadow="2"
     inkscape:zoom="0.25"
     inkscape:cx="-714.7598"
     inkscape:cy="-230.24577"
     inkscape:document-units="mm"
     inkscape:current-layer="layer1"
     showgrid="false"
     inkscape:window-width="1366"
     inkscape:window-height="713"
     inkscape:window-x="0"
     inkscape:window-y="0"
     inkscape:window-maximized="1"
     fit-margin-top="0"
     fit-margin-left="0"
     fit-margin-right="0"
     fit-margin-bottom="0"
     units="px" />
  <metadata
     id="metadata1345">
    <rdf:RDF>
      <cc:Work
         rdf:about="">
        <dc:format>image/svg+xml</dc:format>
        <dc:type
           rdf:resource="http://purl.org/dc/dcmitype/StillImage" />
        <dc:title></dc:title>
      </cc:Work>
    </rdf:RDF>
  </metadata>
  <g
     inkscape:label="Layer 1"
     inkscape:groupmode="layer"
     id="layer1"
     transform="translate(-16.776608,-87.904424)">
    <g
       id="g2026"
       transform="matrix(1.7699654,0,0,1.7699654,-121.61199,25.708068)">
      <rect
         ry="2.0328639"
         y="39.317852"
         x="107.56678"
         height="46.120598"
         width="58.190731"
         id="rect1238"
         style="opacity:1;fill:#ffffff;fill-opacity:1;stroke:none;stroke-width:1;stroke-linejoin:round;stroke-miterlimit:4;stroke-dasharray:none;stroke-opacity:1" />
      <path
         style="stroke-width:0.26458332"
         d="m 162.85497,87.145839 h -52.05545 c -2.43046,0 -4.40795,-1.97829 -4.40795,-4.40848 V 41.874312 c 0,-2.430462 1.97749,-4.407958 4.40795,-4.407958 h 52.05572 c 2.43046,0 4.40796,1.97776 4.40796,4.407958 v 40.863047 c -2.7e-4,2.43046 -1.97776,4.40848 -4.40823,4.40848 z M 110.79952,39.254673 c -1.44436,0 -2.61937,1.175014 -2.61937,2.619375 v 40.863041 c 0,1.44436 1.17501,2.61991 2.61937,2.61991 h 52.05572 c 1.44436,0 2.61937,-1.17555 2.61937,-2.61991 V 41.874312 c 0,-1.44436 -1.17501,-2.619375 -2.61937,-2.619375 h -52.05572 z"
         id="path815"
         inkscape:connector-curvature="0" />
      <g
         id="g845"
         transform="matrix(0.26458333,0,0,0.26458333,52.933561,-62.935084)">
        <path
           d="m 233.454,399.2 c -1.866,0 -3.38,-1.514 -3.38,-3.38 v -21.763 c 0,-1.867 1.514,-3.38 3.38,-3.38 1.867,0 3.38,1.513 3.38,3.38 v 21.763 c 0,1.866 -1.513,3.38 -3.38,3.38 z"
           id="path817"
           inkscape:connector-curvature="0" />
        <path
           d="m 233.454,403.505 c -4.238,0 -7.686,-3.448 -7.686,-7.686 0,-4.236 3.448,-7.684 7.686,-7.684 4.236,0 7.683,3.448 7.683,7.684 0,4.239 -3.447,7.686 -7.683,7.686 z m 0,-8.609 c -0.51,0 -0.926,0.414 -0.926,0.924 0,1.018 1.849,1.021 1.849,0 0,-0.51 -0.415,-0.924 -0.923,-0.924 z"
           id="path819"
           inkscape:connector-curvature="0" />
        <path
           d="m 261.33,399.2 c -1.866,0 -3.38,-1.514 -3.38,-3.38 v -21.763 c 0,-1.867 1.514,-3.38 3.38,-3.38 1.867,0 3.38,1.513 3.38,3.38 v 21.763 c -10e-4,1.866 -1.514,3.38 -3.38,3.38 z"
           id="path821"
           inkscape:connector-curvature="0" />
        <path
           d="m 261.33,403.505 c -4.238,0 -7.686,-3.448 -7.686,-7.686 0,-4.236 3.448,-7.684 7.686,-7.684 4.236,0 7.683,3.448 7.683,7.684 -10e-4,4.239 -3.447,7.686 -7.683,7.686 z m 0,-8.609 c -0.51,0 -0.926,0.414 -0.926,0.924 0,1.018 1.849,1.021 1.849,0 -10e-4,-0.51 -0.415,-0.924 -0.923,-0.924 z"
           id="path823"
           inkscape:connector-curvature="0" />
        <path
           d="m 289.204,399.2 c -1.867,0 -3.38,-1.514 -3.38,-3.38 v -21.763 c 0,-1.867 1.513,-3.38 3.38,-3.38 1.867,0 3.38,1.513 3.38,3.38 v 21.763 c -10e-4,1.866 -1.514,3.38 -3.38,3.38 z"
           id="path825"
           inkscape:connector-curvature="0" />
        <path
           d="m 289.204,403.505 c -4.238,0 -7.686,-3.448 -7.686,-7.686 0,-4.236 3.448,-7.684 7.686,-7.684 4.236,0 7.684,3.448 7.684,7.684 0,4.239 -3.448,7.686 -7.684,7.686 z m 0,-8.609 c -0.51,0 -0.926,0.414 -0.926,0.924 0,1.02 1.85,1.02 1.85,0 0,-0.51 -0.415,-0.924 -0.924,-0.924 z"
           id="path827"
           inkscape:connector-curvature="0" />
        <path
           d="m 317.079,399.2 c -1.866,0 -3.38,-1.514 -3.38,-3.38 v -21.763 c 0,-1.867 1.514,-3.38 3.38,-3.38 1.867,0 3.38,1.513 3.38,3.38 v 21.763 c 0,1.866 -1.513,3.38 -3.38,3.38 z"
           id="path829"
           inkscape:connector-curvature="0" />
        <path
           d="m 317.079,403.505 c -4.238,0 -7.686,-3.448 -7.686,-7.686 0,-4.236 3.448,-7.684 7.686,-7.684 4.236,0 7.682,3.448 7.682,7.684 0,4.239 -3.446,7.686 -7.682,7.686 z m 0,-8.609 c -0.51,0 -0.926,0.414 -0.926,0.924 0,1.018 1.849,1.021 1.849,0 0,-0.51 -0.415,-0.924 -0.923,-0.924 z"
           id="path831"
           inkscape:connector-curvature="0" />
        <path
           d="m 344.955,399.2 c -1.866,0 -3.38,-1.514 -3.38,-3.38 v -21.763 c 0,-1.867 1.514,-3.38 3.38,-3.38 1.867,0 3.38,1.513 3.38,3.38 v 21.763 c -10e-4,1.866 -1.514,3.38 -3.38,3.38 z"
           id="path833"
           inkscape:connector-curvature="0" />
        <path
           d="m 344.955,403.505 c -4.238,0 -7.687,-3.448 -7.687,-7.686 0,-4.236 3.449,-7.684 7.687,-7.684 4.236,0 7.682,3.448 7.682,7.684 0,4.239 -3.446,7.686 -7.682,7.686 z m 0,-8.609 c -0.511,0 -0.927,0.414 -0.927,0.924 0,0.51 0.416,0.926 0.927,0.926 0.508,0 0.923,-0.416 0.923,-0.926 -10e-4,-0.51 -0.415,-0.924 -0.923,-0.924 z"
           id="path835"
           inkscape:connector-curvature="0" />
        <path
           d="m 372.829,399.2 c -1.867,0 -3.38,-1.514 -3.38,-3.38 v -21.763 c 0,-1.867 1.513,-3.38 3.38,-3.38 1.867,0 3.38,1.513 3.38,3.38 v 21.763 c -10e-4,1.866 -1.514,3.38 -3.38,3.38 z"
           id="path837"
           inkscape:connector-curvature="0" />
        <path
           d="m 372.829,403.505 c -4.238,0 -7.686,-3.448 -7.686,-7.686 0,-4.236 3.448,-7.684 7.686,-7.684 4.236,0 7.684,3.448 7.684,7.684 0,4.239 -3.448,7.686 -7.684,7.686 z m 0,-8.609 c -0.51,0 -0.926,0.414 -0.926,0.924 0,1.02 1.85,1.02 1.85,0 0,-0.51 -0.415,-0.924 -0.924,-0.924 z"
           id="path839"
           inkscape:connector-curvature="0" />
        <path
           d="m 400.704,399.2 c -1.867,0 -3.38,-1.514 -3.38,-3.38 v -21.763 c 0,-1.867 1.513,-3.38 3.38,-3.38 1.867,0 3.38,1.513 3.38,3.38 v 21.763 c 0,1.866 -1.513,3.38 -3.38,3.38 z"
           id="path841"
           inkscape:connector-curvature="0" />
        <path
           d="m 400.704,403.505 c -4.238,0 -7.686,-3.448 -7.686,-7.686 0,-4.236 3.448,-7.684 7.686,-7.684 4.236,0 7.682,3.448 7.682,7.684 0,4.239 -3.446,7.686 -7.682,7.686 z m 0,-8.609 c -0.51,0 -0.926,0.414 -0.926,0.924 0,1.018 1.848,1.021 1.848,0 0,-0.51 -0.414,-0.924 -0.922,-0.924 z"
           id="path843"
           inkscape:connector-curvature="0" />
      </g>
      <path
         style="stroke-width:0.26458332"
         d="m 138.35614,58.162859 h -3.05832 c -0.49397,0 -0.89429,-0.40032 -0.89429,-0.89429 v -3.05832 c 0,-0.49398 0.40032,-0.8943 0.89429,-0.8943 h 3.05832 c 0.49398,0 0.89429,0.40032 0.89429,0.8943 v 3.05832 c 0,0.49397 -0.40031,0.89429 -0.89429,0.89429 z m -2.16402,-1.78832 h 1.26973 v -1.26974 h -1.26973 z"
         id="path847"
         inkscape:connector-curvature="0" />
      <path
         style="stroke-width:0.26458332"
         d="m 144.77732,58.162859 h -3.05753 c -0.49371,0 -0.89403,-0.40032 -0.89403,-0.89429 v -3.05832 c 0,-0.49398 0.40032,-0.8943 0.89403,-0.8943 h 3.05753 c 0.49397,0 0.89429,0.40032 0.89429,0.8943 v 3.05832 c 0,0.49397 -0.40032,0.89429 -0.89429,0.89429 z m -2.16297,-1.78832 h 1.26894 v -1.26974 h -1.26894 z"
         id="path849"
         inkscape:connector-curvature="0" />
      <path
         style="stroke-width:0.26458332"
         d="m 151.19875,58.162859 h -3.05832 c -0.49397,0 -0.89429,-0.40032 -0.89429,-0.89429 v -3.05832 c 0,-0.49398 0.40032,-0.8943 0.89429,-0.8943 h 3.05832 c 0.49398,0 0.89429,0.40032 0.89429,0.8943 v 3.05832 c 0,0.49397 -0.40031,0.89429 -0.89429,0.89429 z m -2.16402,-1.78832 h 1.26973 v -1.26974 h -1.26973 z"
         id="path851"
         inkscape:connector-curvature="0" />
      <path
         style="stroke-width:0.26458332"
         d="m 157.62019,58.162859 h -3.05832 c -0.49398,0 -0.89429,-0.40032 -0.89429,-0.89429 v -3.05832 c 0,-0.49398 0.40031,-0.8943 0.89429,-0.8943 h 3.05832 c 0.49398,0 0.89429,0.40032 0.89429,0.8943 v 3.05832 c -2.6e-4,0.49397 -0.40058,0.89429 -0.89429,0.89429 z m -2.16403,-1.78832 h 1.26974 v -1.26974 h -1.26974 z"
         id="path853"
         inkscape:connector-curvature="0" />
      <g
         id="g869"
         transform="matrix(0.26458333,0,0,0.26458333,52.933561,-62.935084)">
        <path
           d="m 250.048,483.026 h -11.556 c -1.867,0 -3.38,-1.512 -3.38,-3.38 v -11.559 c 0,-1.866 1.513,-3.38 3.38,-3.38 h 11.556 c 1.866,0 3.38,1.514 3.38,3.38 v 11.559 c 0,1.868 -1.513,3.38 -3.38,3.38 z m -8.175,-6.76 h 4.796 v -4.799 h -4.796 z"
           id="path855"
           inkscape:connector-curvature="0" />
        <path
           d="m 274.318,483.026 h -11.556 c -1.867,0 -3.38,-1.512 -3.38,-3.38 v -11.559 c 0,-1.866 1.513,-3.38 3.38,-3.38 h 11.556 c 1.866,0 3.38,1.514 3.38,3.38 v 11.559 c 0,1.868 -1.514,3.38 -3.38,3.38 z m -8.176,-6.76 h 4.796 v -4.799 h -4.796 z"
           id="path857"
           inkscape:connector-curvature="0" />
        <path
           d="m 298.587,483.026 h -11.559 c -1.866,0 -3.38,-1.512 -3.38,-3.38 v -11.559 c 0,-1.866 1.514,-3.38 3.38,-3.38 h 11.559 c 1.867,0 3.38,1.514 3.38,3.38 v 11.559 c 0,1.868 -1.513,3.38 -3.38,3.38 z m -8.179,-6.76 h 4.799 v -4.799 h -4.799 z"
           id="path859"
           inkscape:connector-curvature="0" />
        <path
           d="m 322.857,483.026 h -11.559 c -1.867,0 -3.38,-1.512 -3.38,-3.38 v -11.559 c 0,-1.866 1.513,-3.38 3.38,-3.38 h 11.559 c 1.867,0 3.38,1.514 3.38,3.38 v 11.559 c 0,1.868 -1.513,3.38 -3.38,3.38 z m -8.179,-6.76 h 4.799 v -4.799 h -4.799 z"
           id="path861"
           inkscape:connector-curvature="0" />
        <path
           d="M 347.126,483.026 H 335.57 c -1.866,0 -3.379,-1.512 -3.379,-3.38 v -11.559 c 0,-1.866 1.513,-3.38 3.379,-3.38 h 11.556 c 1.867,0 3.38,1.514 3.38,3.38 v 11.559 c 0,1.868 -1.513,3.38 -3.38,3.38 z m -8.175,-6.76 h 4.796 v -4.799 h -4.796 z"
           id="path863"
           inkscape:connector-curvature="0" />
        <path
           d="m 371.396,483.026 h -11.559 c -1.867,0 -3.38,-1.512 -3.38,-3.38 v -11.559 c 0,-1.866 1.513,-3.38 3.38,-3.38 h 11.559 c 1.867,0 3.38,1.514 3.38,3.38 v 11.559 c 0,1.868 -1.513,3.38 -3.38,3.38 z m -8.179,-6.76 h 4.799 v -4.799 h -4.799 z"
           id="path865"
           inkscape:connector-curvature="0" />
        <path
           d="m 395.666,483.026 h -11.559 c -1.867,0 -3.38,-1.512 -3.38,-3.38 v -11.559 c 0,-1.866 1.513,-3.38 3.38,-3.38 h 11.559 c 1.867,0 3.38,1.514 3.38,3.38 v 11.559 c -10e-4,1.868 -1.514,3.38 -3.38,3.38 z m -8.179,-6.76 h 4.799 v -4.799 h -4.799 z"
           id="path867"
           inkscape:connector-curvature="0" />
      </g>
      <g
         id="g885"
         transform="matrix(0.26458333,0,0,0.26458333,52.933561,-62.935084)">
        <path
           d="m 250.048,508.358 h -11.556 c -1.867,0 -3.38,-1.512 -3.38,-3.38 V 493.42 c 0,-1.868 1.513,-3.38 3.38,-3.38 h 11.556 c 1.866,0 3.38,1.512 3.38,3.38 v 11.559 c 0,1.868 -1.513,3.379 -3.38,3.379 z m -8.175,-6.759 h 4.796 V 496.8 h -4.796 z"
           id="path871"
           inkscape:connector-curvature="0" />
        <path
           d="m 274.318,508.358 h -11.556 c -1.867,0 -3.38,-1.512 -3.38,-3.38 V 493.42 c 0,-1.868 1.513,-3.38 3.38,-3.38 h 11.556 c 1.866,0 3.38,1.512 3.38,3.38 v 11.559 c 0,1.868 -1.514,3.379 -3.38,3.379 z m -8.176,-6.759 h 4.796 V 496.8 h -4.796 z"
           id="path873"
           inkscape:connector-curvature="0" />
        <path
           d="m 298.587,508.358 h -11.559 c -1.866,0 -3.38,-1.512 -3.38,-3.38 V 493.42 c 0,-1.868 1.514,-3.38 3.38,-3.38 h 11.559 c 1.867,0 3.38,1.512 3.38,3.38 v 11.559 c 0,1.868 -1.513,3.379 -3.38,3.379 z m -8.179,-6.759 h 4.799 V 496.8 h -4.799 z"
           id="path875"
           inkscape:connector-curvature="0" />
        <path
           d="m 322.857,508.358 h -11.559 c -1.867,0 -3.38,-1.512 -3.38,-3.38 V 493.42 c 0,-1.868 1.513,-3.38 3.38,-3.38 h 11.559 c 1.867,0 3.38,1.512 3.38,3.38 v 11.559 c 0,1.868 -1.513,3.379 -3.38,3.379 z m -8.179,-6.759 h 4.799 V 496.8 h -4.799 z"
           id="path877"
           inkscape:connector-curvature="0" />
        <path
           d="M 347.126,508.358 H 335.57 c -1.866,0 -3.379,-1.512 -3.379,-3.38 V 493.42 c 0,-1.868 1.513,-3.38 3.379,-3.38 h 11.556 c 1.867,0 3.38,1.512 3.38,3.38 v 11.559 c 0,1.868 -1.513,3.379 -3.38,3.379 z m -8.175,-6.759 h 4.796 V 496.8 h -4.796 z"
           id="path879"
           inkscape:connector-curvature="0" />
        <path
           d="m 371.396,508.358 h -11.559 c -1.867,0 -3.38,-1.512 -3.38,-3.38 V 493.42 c 0,-1.868 1.513,-3.38 3.38,-3.38 h 11.559 c 1.867,0 3.38,1.512 3.38,3.38 v 11.559 c 0,1.868 -1.513,3.379 -3.38,3.379 z m -8.179,-6.759 h 4.799 V 496.8 h -4.799 z"
           id="path881"
           inkscape:connector-curvature="0" />
        <path
           d="m 395.666,508.358 h -11.559 c -1.867,0 -3.38,-1.512 -3.38,-3.38 V 493.42 c 0,-1.868 1.513,-3.38 3.38,-3.38 h 11.559 c 1.867,0 3.38,1.512 3.38,3.38 v 11.559 c -10e-4,1.868 -1.514,3.379 -3.38,3.379 z m -8.179,-6.759 h 4.799 V 496.8 h -4.799 z"
           id="path883"
           inkscape:connector-curvature="0" />
      </g>
      <path
         style="stroke-width:0.26458332"
         d="m 119.09209,78.269869 h -3.05752 c -0.49398,0 -0.89429,-0.40005 -0.89429,-0.89429 v -3.05832 c 0,-0.49424 0.40031,-0.89429 0.89429,-0.89429 h 3.05752 c 0.49372,0 0.8943,0.40005 0.8943,0.89429 v 3.05832 c 0,0.49424 -0.40032,0.89429 -0.8943,0.89429 z m -2.16296,-1.78859 h 1.26894 v -1.26973 h -1.26894 z"
         id="path887"
         inkscape:connector-curvature="0" />
      <path
         style="stroke-width:0.26458332"
         d="m 125.51353,78.269869 h -3.05752 c -0.49398,0 -0.89429,-0.40005 -0.89429,-0.89429 v -3.05832 c 0,-0.49424 0.40031,-0.89429 0.89429,-0.89429 h 3.05752 c 0.49371,0 0.89429,0.40005 0.89429,0.89429 v 3.05832 c 0,0.49424 -0.40058,0.89429 -0.89429,0.89429 z m -2.16323,-1.78859 h 1.26894 v -1.26973 h -1.26894 z"
         id="path889"
         inkscape:connector-curvature="0" />
      <path
         style="stroke-width:0.26458332"
         d="m 131.93471,78.269869 h -3.05832 c -0.49372,0 -0.8943,-0.40005 -0.8943,-0.89429 v -3.05832 c 0,-0.49424 0.40058,-0.89429 0.8943,-0.89429 h 3.05832 c 0.49397,0 0.89429,0.40005 0.89429,0.89429 v 3.05832 c 0,0.49424 -0.40032,0.89429 -0.89429,0.89429 z m -2.16403,-1.78859 h 1.26973 v -1.26973 h -1.26973 z"
         id="path891"
         inkscape:connector-curvature="0" />
      <path
         style="stroke-width:0.26458332"
         d="m 138.35614,78.269869 h -3.05832 c -0.49397,0 -0.89429,-0.40005 -0.89429,-0.89429 v -3.05832 c 0,-0.49424 0.40032,-0.89429 0.89429,-0.89429 h 3.05832 c 0.49398,0 0.89429,0.40005 0.89429,0.89429 v 3.05832 c 0,0.49424 -0.40031,0.89429 -0.89429,0.89429 z m -2.16402,-1.78859 h 1.26973 v -1.26973 h -1.26973 z"
         id="path893"
         inkscape:connector-curvature="0" />
      <path
         style="stroke-width:0.26458332"
         d="m 144.77732,78.269869 h -3.05753 c -0.49371,0 -0.89403,-0.40005 -0.89403,-0.89429 v -3.05832 c 0,-0.49424 0.40032,-0.89429 0.89403,-0.89429 h 3.05753 c 0.49397,0 0.89429,0.40005 0.89429,0.89429 v 3.05832 c 0,0.49424 -0.40032,0.89429 -0.89429,0.89429 z m -2.16297,-1.78859 h 1.26894 v -1.26973 h -1.26894 z"
         id="path895"
         inkscape:connector-curvature="0" />
      <path
         style="stroke-width:0.26458332"
         d="m 157.81387,50.836809 h -13.03655 c -0.49398,0 -0.8943,-0.40032 -0.8943,-0.89429 0,-0.49398 0.40032,-0.89429 0.8943,-0.89429 h 13.03655 c 0.49397,0 0.89429,0.40031 0.89429,0.89429 0,0.49397 -0.40032,0.89429 -0.89429,0.89429 z"
         id="path897"
         inkscape:connector-curvature="0" />
    </g>
    <rect
       style="opacity:1;fill:#ffffff;fill-opacity:1;stroke:none;stroke-width:1;stroke-linejoin:round;stroke-miterlimit:4;stroke-dasharray:none;stroke-opacity:1"
       id="rect2662"
       width="58.964287"
       height="79.563988"
       x="24.946428"
       y="137.11606"
       ry="2.032865" />
    <path
       style="fill:#000000;fill-opacity:1;fill-rule:nonzero;stroke:none;stroke-width:0.03527778"
       d="m 21.575282,131.49873 v 87.15902 c 0,1.60726 1.30316,2.91042 2.910417,2.91042 h 59.885748 c 1.607257,0 2.910417,-1.30316 2.910417,-2.91042 v -87.15902 z m 8.385535,9.22838 h 1.686203 c 0.14605,0 0.264583,0.11853 0.264583,0.26458 v 71.08352 c 0,0.14605 -0.118533,0.26458 -0.264583,0.26458 h -1.686203 c -0.14605,0 -0.264583,-0.11853 -0.264583,-0.26458 v -71.08352 c 0,-0.14605 0.118533,-0.26458 0.264583,-0.26458 z m 11.812714,0 h 1.685168 c 0.14605,0 0.264584,0.11853 0.264584,0.26458 v 71.08352 c 0,0.14605 -0.118534,0.26458 -0.264584,0.26458 h -1.685168 c -0.14605,0 -0.264583,-0.11853 -0.264583,-0.26458 v -71.08352 c 0,-0.14605 0.118533,-0.26458 0.264583,-0.26458 z m 11.812199,0 h 1.685686 c 0.14605,0 0.264584,0.11853 0.264584,0.26458 v 71.08352 c 0,0.14605 -0.118534,0.26458 -0.264584,0.26458 H 53.58573 c -0.146402,0 -0.264584,-0.11853 -0.264584,-0.26458 v -71.08352 c 0,-0.14605 0.118182,-0.26458 0.264584,-0.26458 z m 11.812201,0 h 1.685684 c 0.14605,0 0.264583,0.11853 0.264583,0.26458 v 71.08352 c 0,0.14605 -0.118533,0.26458 -0.264583,0.26458 h -1.685684 c -0.146405,0 -0.264584,-0.11853 -0.264584,-0.26458 v -71.08352 c 0,-0.14605 0.118179,-0.26458 0.264584,-0.26458 z m 11.812198,0 h 1.6862 c 0.14605,0 0.264584,0.11853 0.264584,0.26458 v 71.08352 c 0,0.14605 -0.118534,0.26458 -0.264584,0.26458 h -1.6862 c -0.14605,0 -0.264583,-0.11853 -0.264583,-0.26458 v -71.08352 c 0,-0.14605 0.118533,-0.26458 0.264583,-0.26458 z"
       id="path16"
       inkscape:connector-curvature="0" />
    <path
       style="fill:#000001;fill-opacity:1;fill-rule:nonzero;stroke:none;stroke-width:0.03527778"
       d="m 49.76271,107.84849 c -5.13269,0 -9.37082,3.89602 -9.917743,8.88525 H 19.687025 c -1.607256,0 -2.910417,1.30281 -2.910417,2.91042 v 9.63972 h 75.30393 v -9.63972 c 0,-1.60761 -1.30316,-2.91042 -2.910417,-2.91042 H 69.012179 c -0.546963,-4.98923 -4.785381,-8.88525 -9.91774,-8.88525 z m 0,4.14755 h 9.331729 c 2.841514,0 5.213554,2.04346 5.727298,4.7377 H 44.034893 c 0.51381,-2.69424 2.886303,-4.7377 5.727817,-4.7377 z"
       id="path18"
       inkscape:connector-curvature="0" />
  </g>
</svg>
